<?xml version="1.0" encoding="utf-8"?>
<!-- Generator: Adobe Illustrator 23.1.0, SVG Export Plug-In . SVG Version: 6.00 Build 0)  -->
<svg version="1.1" id="Calque_1" xmlns="http://www.w3.org/2000/svg" xmlns:xlink="http://www.w3.org/1999/xlink" x="0px" y="0px"
	 viewBox="0 0 4258.94 1022.01" style="enable-background:new 0 0 4258.94 1022.01;" xml:space="preserve">
<style type="text/css">
	.st0{fill:#0411F1;}
	.st1{fill:#FB8108;}
</style>
<path class="st0" d="M1152.02,0c3.28,7.1,10.63,5.53,16.2,7.09c74.23,20.87,129.99,88.59,133.51,165.74
	c2.05,44.86,0.94,89.88,0.96,134.83c0.06,126.32,0.67,252.65-0.32,378.96c-0.66,83.85-53.28,152.75-132.8,176.84
	c-12.97,3.93-26.71,6.9-40.18,7.26c-38.11,1-76.27,0.26-114.41,0.51c-12.54,0.08-11.86-5.32-6.49-13.47
	c24.13-33.28,37.08-71.44,48.72-110.19c17.08,0.2,34.16,0.54,51.24,0.56c45.82,0.04,70.96-24.52,71.01-70.52
	c0.2-161.15,0.2-322.3-0.02-483.45c-0.06-46.73-25.3-71.3-72.2-71.3c-265.48-0.01-530.95,0.03-796.43,0.1
	c-47.03,0.01-71.64,24.45-71.67,71.22c-0.08,160.01-0.06,320.02-0.05,480.03c0,6.26-0.01,12.55,0.64,18.77
	c3.07,29.44,28.53,53.93,58.24,54.86c21.6,0.68,43.26-0.26,64.89-0.48c3.52,10.59,7.28,21.11,10.51,31.79
	c9.8,32.47,28.6,60.59,43.48,90.6c-4.28,0.51-8.56,1.47-12.84,1.47c-35.25,0-70.52,0.4-105.75-0.41
	c-61.4-1.41-110.02-27.74-147.06-76.56c-16.08-21.2-23.29-46.58-35.11-69.77c0-192.51,0-385.02,0-577.53
	c3.62-8.42,7.42-16.77,10.84-25.27c22.31-55.42,60.86-93.76,117.97-112.92C254.34,5.6,265.53,8.2,273.37,0
	C566.25,0,859.14,0,1152.02,0z"/>
<path class="st1" d="M416.86,869.75c-14.88-30.01-33.68-58.13-43.48-90.6c-3.22-10.68-6.99-21.2-10.51-31.79
	c-0.33-3.92-0.34-7.9-1.03-11.75c-21.04-117.43,6.94-221.46,86.9-310.29c42.83-47.58,95.82-79.4,157.3-98.88
	c76.23-24.16,151.45-20.34,225.42,5.07c68.26,23.45,123.8,66.2,166.38,124.89c35.65,49.14,57.89,103.71,65.37,164.13
	c5.29,42.71,3.13,85.04-5.99,127.05c-11.63,38.75-24.59,76.92-48.72,110.19c-17.43,27.74-38.87,52-63.02,73.97
	c-42.32,38.51-92.17,63.51-146.98,77.7c-26.18,6.78-52.98,13.55-80.67,12.34c-9.12,0-18.23,0-27.35,0
	c-28.4-2.58-56.13-8.84-83.38-16.8c-56.52-16.53-104.95-46.41-147.07-87.78C444.64,902.09,434,883,416.86,869.75z M699.09,896.54
	c132.79,9.67,240.41-99.18,244.06-224.61c3.68-126.77-102.96-236.73-231.38-238.38c-124.31-1.6-229.83,101.23-233.68,226.9
	C474.26,785.43,580.33,896.55,699.09,896.54z"/>
<path class="st0" d="M4218.77,639.04c-1.88,9.44-9.65,8.19-16.04,8.23c-41.57,0.26-83.15,0.09-124.72,0.34
	c-14.86,0.09-21.57-6.13-21.51-21.58c0.35-85.39,0.39-170.79-0.05-256.18c-0.07-12.7,5.18-16.93,16.81-18.12
	c40.78-4.17,43.57-1.93,43.57,38.77c0.01,63.76,0.28,127.52-0.3,191.28c-0.11,12.45,2.91,17.02,16.08,16.39
	c22.73-1.09,45.55-0.24,68.33-0.26c6.89-0.01,13.93-0.58,17.84,6.96C4218.77,616.26,4218.77,627.65,4218.77,639.04z"/>
<path class="st0" d="M1763.92,552.06c0-8.99,0-17.74,0-26.49c0.01-50.69,0.57-101.39-0.3-152.06c-0.27-15.77,5.77-21.96,20.57-21.74
	c3.99,0.06,7.98-0.2,11.96-0.11c20.06,0.46,22.78,3.1,22.78,22.85c0.02,75.18-0.01,150.36-0.08,225.54
	c-0.01,9.68-0.19,19.36-0.58,29.03c-0.29,7.32-3.58,13.07-10.27,16.52c-25.65,13.24-64.19,0.66-77.84-25.41
	c-31.13-59.48-62.23-118.98-93.42-178.43c-0.94-1.8-2.67-3.19-3.97-4.69c-6.08,2.41-4.04,6.96-4.03,10.45
	c0.17,59.8-0.09,119.6,1.14,179.38c0.35,16.91-6.48,22.81-21.75,22.57c-6.26-0.1-12.52-0.28-18.77-0.67
	c-10.43-0.65-14.61-6.1-14.57-16.75c0.28-85.43,0.23-170.86,0.19-256.29c-0.01-15.62,8.18-22.79,23.1-23.57
	c1.14-0.06,2.3,0.11,3.42-0.05c37.16-5.25,61.64,7.09,77.85,43.84c22.24,50.4,50.27,98.24,75.99,147.09
	C1756.98,546.2,1756.7,551.23,1763.92,552.06z"/>
<path class="st0" d="M2791.89,487.96c7.71,4.34,15.52,7.72,22.18,12.66c41.81,30.97,37.43,99.58-7.97,128.09
	c-19.29,12.11-40.66,17.8-63.14,18.36c-30.71,0.76-61.45,0.09-92.16,0.73c-16.18,0.34-22.52-7.19-22.5-22.64
	c0.1-83.03,0.04-166.06-0.11-249.09c-0.03-15.96,6.49-24.5,23.45-23.93c37.46,1.26,75.19-3.33,112.35,4.36
	c53.58,11.09,78.27,63.98,51.05,107.9C2809.16,473.88,2799.2,478.86,2791.89,487.96z M2687.92,559.11
	c0.01,43.58,0.01,43.59,44.02,42.2c3.96-0.12,7.96-0.19,11.87-0.76c20.99-3.01,34.61-17.19,35.64-36.88
	c1.16-22.17-10.99-38.48-32.76-42.91c-8.28-1.69-16.85-2.32-25.32-2.65c-33.48-1.33-33.49-1.21-33.46,32.5
	C2687.92,553.44,2687.92,556.27,2687.92,559.11z M2687.87,436.01c0.05,43.07,0.05,43.07,41.35,37.61
	c22.27-2.94,34.99-17.02,34.89-38.62c-0.1-21.49-11.31-33.09-34.7-35.92C2687.82,394.04,2687.82,394.04,2687.87,436.01z"/>
<path class="st0" d="M2878.44,502.66c0-41.55-0.12-83.11,0.05-124.66c0.09-21.42,4.56-25.73,26.36-25.81
	c26.76-0.09,53.53,0.04,80.29,0.29c13.13,0.12,26.11,1.58,38.78,5.38c36.23,10.89,55.49,32.08,58.45,67.14
	c2.93,34.68-8.73,62.82-41.27,79.28c-8.6,4.35-12.4,7.43-2.38,14.56c8.47,6.03,14.22,14.67,18.88,23.91
	c14.1,27.97,25.94,56.93,37.49,86.02c5.02,12.65,1.41,19.87-12.93,20.19c-2.28,0.05-4.55,0.21-6.82,0.33
	c-37.84,1.84-37.74,1.8-52.2-33.36c-8.43-20.52-16.85-41.06-26.05-61.23c-5.02-11-12.41-20.39-24.82-24.44
	c-26.61-8.7-33.2-4.13-33.22,23.36c-0.02,25.05-0.85,50.13,0.27,75.12c0.65,14.51-5.91,19.54-18.64,20.35
	c-2.27,0.14-4.54,0.33-6.82,0.41c-33.51,1.28-35.46-0.6-35.46-34.14c0-37.57,0-75.14,0-112.71
	C2878.4,502.66,2878.42,502.66,2878.44,502.66z M2939.01,440.49c0.27,45.04,0.27,45.04,40.36,40.63
	c27.84-3.06,41.98-19.79,39.75-47.04c-2.17-26.61-21.24-37.36-66.81-34.33c-27.2,1.81-7.37,24.18-13.21,35.67
	C2938.41,436.78,2939.01,438.79,2939.01,440.49z"/>
<path class="st0" d="M3370.75,460.05c0,27.9,0.56,55.81-0.11,83.69c-1.49,61.87-37.51,101.14-98.9,108.16
	c-19.29,2.21-38.65,2.03-57.85-1.7c-50.97-9.89-82.21-43.37-83.73-95.34c-1.82-62.01-0.33-124.1-0.77-186.16
	c-0.09-12.01,5.56-16.35,16.28-16.88c1.14-0.06,2.27-0.2,3.41-0.28c38.1-2.91,40.82-0.43,40.81,37.19
	c-0.01,50.1-0.61,100.22,0.15,150.31c0.72,47.88,35.5,74.05,80.04,61.51c23.66-6.66,35.44-23.32,39.23-46.61
	c3.59-22.09,1.14-44.34,1.39-66.51c0.43-38.71,0.64-77.44,0.04-116.14c-0.22-14.08,5.53-18.98,18.97-19.81
	c38.98-2.42,41.18-0.72,41.21,38.53c0.02,23.34,0,46.69,0,70.03C3370.85,460.05,3370.8,460.05,3370.75,460.05z"/>
<path class="st0" d="M2089.95,500.02c-0.01-40.42-0.11-80.84,0.03-121.26c0.08-22.07,4.2-26.4,25.67-26.51
	c42.72-0.21,85.43-0.21,128.15-0.1c18.34,0.05,20.07,3.11,20.27,26.5c0.12,15.05-3.71,23.18-21.41,22.18
	c-25.55-1.44-51.24,0.06-76.86-0.47c-10.53-0.22-15.9,2.19-15.23,14.09c0.82,14.75,0.6,29.61-0.02,44.39
	c-0.42,9.94,3.79,12.8,13.1,12.62c22.2-0.43,44.46,0.69,66.62-0.4c18.78-0.93,18.22,11.65,18.26,23.57
	c0.04,11.92,0.67,24.65-18.04,23.86c-21.6-0.91-43.28,0.15-64.91-0.37c-10.65-0.25-15.61,2.81-15.1,14.44
	c0.78,17.61,0.83,35.32-0.03,52.92c-0.61,12.57,4.99,15.17,16.16,14.92c26.76-0.6,53.56,0.51,80.29-0.45
	c19.82-0.71,18.46,12.58,18.65,25.09c0.2,12.58-0.46,23.45-18.8,23.05c-43.83-0.97-87.7-0.14-131.55-0.2
	c-20.92-0.03-25.15-4.21-25.22-24.91C2089.87,581.99,2089.95,541,2089.95,500.02z"/>
<path class="st0" d="M3840.18,499.83c0.01-40.98-0.15-81.97,0.08-122.95c0.11-19.47,5.15-24.53,24.22-24.61
	c43.85-0.18,87.71,0.5,131.54-0.33c19.95-0.37,18.26,12.72,18.41,25.21c0.15,12.37,0.29,24.14-18.29,23.43
	c-26.72-1.02-53.53,0.17-80.28-0.36c-10.6-0.21-15.82,2.32-15.11,14.15c0.88,14.75,0.84,29.61,0.14,44.38
	c-0.48,10.2,4.16,12.79,13.15,12.68c22.21-0.26,44.45,0.66,66.62-0.34c18.74-0.85,18.05,11.77,18.17,23.7
	c0.12,12.14,0.32,24.45-18.23,23.65c-21.6-0.92-43.28,0.27-64.9-0.23c-10.77-0.25-15.52,3-14.97,14.56
	c0.81,17.04,0.91,34.18-0.02,51.21c-0.68,12.45,2.9,17.12,16.11,16.63c26.73-0.99,53.55,0.47,80.28-0.53
	c19.64-0.73,18.74,12.21,18.87,24.87c0.13,12.67-0.79,23.49-18.97,23.11c-43.83-0.91-87.69-0.13-131.54-0.22
	c-20.74-0.04-25.14-4.4-25.22-25.08C3840.06,581.8,3840.17,540.81,3840.18,499.83z"/>
<path class="st0" d="M3701.47,652.95c-25.95,0.84-48.08-3.9-68.97-13.77c-17.24-8.14-25.57-36.17-16.45-52.97
	c5.08-9.36,11.4-4.8,17.19-1.46c15.94,9.2,32.62,16.13,50.98,18.75c12.07,1.72,23.91,1.12,35.4-3.01
	c26.74-9.61,32.43-40.04,10.87-58.29c-8.32-7.04-18.04-11.84-28.01-16.15c-15.68-6.77-31.31-13.59-45.66-23.06
	c-31.73-20.95-42.66-50.75-36.59-87.19c5.65-33.91,29.78-56.9,66.29-65.07c29.9-6.69,58.95-3.75,87.07,7.89
	c14.93,6.18,23.45,39.71,13.38,52.11c-5.41,6.66-11.54,2.07-16.8-0.86c-18.3-10.21-37.41-16.45-58.74-14.31
	c-14.21,1.43-25.29,6.93-29.4,21.61c-4.02,14.33,0.88,25.56,12.69,34.3c11.09,8.2,23.65,13.45,36.05,19.16
	c11.87,5.47,23.83,10.91,35.07,17.53c29.19,17.19,42.67,43.02,40.84,76.96c-1.81,33.59-17.39,58.42-47.03,74.07
	C3740.69,649.2,3720.24,653.77,3701.47,652.95z"/>
<path class="st0" d="M3485.62,653c-22.65,0.44-44.07-4.69-64.11-15.02c-14.95-7.71-23.13-38.36-14.3-52.35
	c5.42-8.59,11.76-3.94,17.62-0.56c19.99,11.54,40.86,19.86,64.48,19.32c8.07-0.19,15.89-1.43,23.3-4.56
	c25.48-10.76,29.92-40.07,8.73-57.69c-15.59-12.96-34.94-18.8-52.83-27.35c-42.65-20.39-61.53-48.86-58.56-88.78
	c2.71-36.38,21.69-60.87,55.93-71.61c35.73-11.21,71.41-11.26,104.8,9.39c9.84,6.08,14.76,40.23,6.4,47.78
	c-5.47,4.93-10.61,1.04-15.54-1.63c-18.29-9.91-37.22-16.88-58.63-14.43c-14.76,1.69-26.36,7.35-30.41,22.82
	c-4.27,16.33,3.94,27.54,16.65,35.8c8.05,5.23,17.07,9,25.72,13.28c12.73,6.29,25.8,11.94,38.24,18.76
	c34.24,18.79,48.85,48.04,43.86,86.62c-4.79,37.03-26.49,60.49-61.01,72.79C3519.73,651.35,3502.85,653.62,3485.62,653z"/>
<path class="st0" d="M2285.27,494.65c0.71-43.03,12.33-90.42,57.11-123.45c38.36-28.3,103.69-31.32,144.41-6.96
	c14.18,8.49,22.45,40.9,13.72,54.68c-5.53,8.73-11.89,3.85-17.49,0.1c-13.87-9.3-28.36-16.93-45.2-19.09
	c-37.73-4.86-66.25,11.94-78.63,47.94c-12.43,36.14-12.25,72.92,0.4,108.91c13.14,37.37,54.2,53.77,96.7,39.85
	c10.33-3.38,19.63-8.84,28.94-14.45c12.45-7.5,16.95-4.7,18.11,10.15c2.54,32.69-2.44,41.55-34.05,51.39
	c-52.47,16.33-103.13,14.6-145.33-25.21C2291.35,587.74,2285.52,546.29,2285.27,494.65z"/>
<path class="st0" d="M1923.54,523.54c-0.01-35.27-0.36-70.55,0.19-105.82c0.18-11.71-3.4-16.31-15.59-15.64
	c-16.46,0.91-33.01-0.23-49.5,0.33c-11.64,0.39-16.93-4.55-16.87-15.91c0.03-5.69,0-11.37-0.11-17.06
	c-0.23-11.79,4.53-17.51,17.29-17.44c63.75,0.36,127.5,0.31,191.24,0.03c11.89-0.05,15.78,5.81,16.87,16.51
	c3.03,29.53-0.51,33.76-29.98,33.75c-11.95,0-23.96,0.69-35.84-0.24c-12.96-1.02-16.47,4.19-16.39,16.66
	c0.41,68.84,0.04,137.68,0,206.52c-0.01,20.52-2.2,22.92-23.33,24.05c-5.11,0.27-10.24,0.07-15.36,0.06
	c-15.57-0.04-23.74-5.4-23.02-23.42C1924.51,591.85,1923.55,557.67,1923.54,523.54z"/>
<path class="st0" d="M1462.54,498.95c0-42.09,0.57-84.19-0.31-126.26c-0.3-14.57,4.62-20.35,18.97-21.33
	c39.06-2.67,41.52-0.75,41.52,38.47c0,77.92,0.02,155.84-0.02,233.76c-0.01,22.6-2.39,24.98-25.17,25.86
	c-3.41,0.13-6.83,0.12-10.24-0.05c-23.28-1.13-24.74-2.7-24.74-25.9C1462.55,581.99,1462.54,540.47,1462.54,498.95z"/>
</svg>
